<svg width="51" height="38" viewBox="0 0 51 38" fill="none" xmlns="http://www.w3.org/2000/svg">
<g filter="url(#filter0_d_180_6)">
<path d="M20.0003 19.2533L25.6372 23.7628C26.2078 24.2192 27.0394 24.1314 27.5021 23.5659L38.667 9.91992" stroke="white" stroke-width="2.5" stroke-linecap="round"/>
</g>
<g filter="url(#filter1_d_180_6)">
<path fill-rule="evenodd" clip-rule="evenodd" d="M24.6115 17.6663L30.3018 10.7115C30.739 10.1772 30.6602 9.38967 30.1259 8.95251C29.5916 8.51535 28.8041 8.59411 28.3669 9.12841L22.6909 16.0658L24.6115 17.6663ZM19.5454 23.8582L17.6248 22.2577L17.1763 22.8058C17.1481 22.8404 17.0976 22.8465 17.0618 22.8197L12.751 19.5866C12.1988 19.1724 11.4153 19.2843 11.001 19.8366C10.5868 20.3889 10.6988 21.1724 11.2511 21.5866L15.5618 24.8197C16.6693 25.6503 18.2346 25.4603 19.1112 24.3889L19.5454 23.8582Z" fill="white"/>
</g>
<defs>
<filter id="filter0_d_180_6" x="8.65" y="0.569921" width="41.367" height="36.8351" filterUnits="userSpaceOnUse" color-interpolation-filters="sRGB">
<feFlood flood-opacity="0" result="BackgroundImageFix"/>
<feColorMatrix in="SourceAlpha" type="matrix" values="0 0 0 0 0 0 0 0 0 0 0 0 0 0 0 0 0 0 127 0" result="hardAlpha"/>
<feOffset dy="2"/>
<feGaussianBlur stdDeviation="5.05"/>
<feComposite in2="hardAlpha" operator="out"/>
<feColorMatrix type="matrix" values="0 0 0 0 1 0 0 0 0 1 0 0 0 0 1 0 0 0 1 0"/>
<feBlend mode="normal" in2="BackgroundImageFix" result="effect1_dropShadow_180_6"/>
<feBlend mode="normal" in="SourceGraphic" in2="effect1_dropShadow_180_6" result="shape"/>
</filter>
<filter id="filter1_d_180_6" x="0.650976" y="0.569921" width="40.033" height="36.8665" filterUnits="userSpaceOnUse" color-interpolation-filters="sRGB">
<feFlood flood-opacity="0" result="BackgroundImageFix"/>
<feColorMatrix in="SourceAlpha" type="matrix" values="0 0 0 0 0 0 0 0 0 0 0 0 0 0 0 0 0 0 127 0" result="hardAlpha"/>
<feOffset dy="2"/>
<feGaussianBlur stdDeviation="5.05"/>
<feComposite in2="hardAlpha" operator="out"/>
<feColorMatrix type="matrix" values="0 0 0 0 1 0 0 0 0 1 0 0 0 0 1 0 0 0 1 0"/>
<feBlend mode="normal" in2="BackgroundImageFix" result="effect1_dropShadow_180_6"/>
<feBlend mode="normal" in="SourceGraphic" in2="effect1_dropShadow_180_6" result="shape"/>
</filter>
</defs>
</svg>
